<?xml version="1.0" encoding="UTF-8" standalone="no"?>
<svg version="1.1"
     baseProfile="full"
     xmlns="http://www.w3.org/2000/svg"
     xmlns:xlink="http://www.w3.org/1999/xlink"
     xmlns:ev="http://www.w3.org/2001/xml-events"
     width="100%" height="100%"
     id="svg-key"
     viewBox="0 0 512 512">

    <g class="svg-fill-a">
        <path d="M 480.663,121.733 386.426,27.496 c -36.665,-36.661 -96.319,-36.661 -132.981,0 l -87.131,87.132 c -17.76,17.76 -27.541,41.374 -27.541,66.491 0,24.377 9.239,47.324 26.019,64.893 L 7.375,403.441 c -2.284,2.284 -3.579,5.399 -3.579,8.636 l 0,87.707 c 0,6.743 5.473,12.216 12.216,12.216 l 72.279,0 c 3.237,0 6.34,-1.295 8.636,-3.579 L 121.285,484.1 c 2.297,-2.284 3.579,-5.399 3.579,-8.636 l 0,-29.916 29.867,0 c 6.755,0 12.216,-5.46 12.216,-12.216 l 0,-11.971 11.971,0 c 6.755,0 12.216,-5.46 12.216,-12.216 l 0,-26.275 26.288,0 c 3.237,0 6.352,-1.295 8.636,-3.579 l 36.005,-36.005 c 17.579,16.833 40.56,26.101 64.978,26.101 25.118,0 48.73,-9.781 66.49,-27.54 l 87.132,-87.132 c 17.76,-17.76 27.541,-41.374 27.541,-66.492 0,-25.116 -9.78,-48.73 -27.541,-66.49 z m -268.298,236.706 -33.446,0 c -6.743,0 -12.216,5.46 -12.216,12.216 l 0,26.276 -11.971,0 c -6.743,0 -12.216,5.473 -12.216,12.216 l 0,11.971 -29.866,0 c -6.743,0 -12.216,5.473 -12.216,12.216 l 0,37.062 -17.199,17.175 -55.007,0 0,-17.263 149.31,-149.309 c 4.294,-4.294 4.294,-11.255 0,-15.549 -4.293,-4.293 -11.254,-4.293 -15.548,0 l -133.763,133.759 0,-22.076 153.801,-153.812 62.722,62.722 -32.385,32.396 z M 463.388,237.438 376.256,324.57 c -27.137,27.137 -71.291,27.137 -98.428,0 L 183.59,230.332 c -27.137,-27.137 -27.137,-71.292 0,-98.429 l 87.131,-87.132 c 13.569,-13.569 31.389,-20.352 49.215,-20.352 17.821,0 35.647,6.786 49.214,20.352 l 94.238,94.238 c 27.138,27.137 27.138,71.292 0,98.429 z"/>
        <path d="M411.115,136.749L371.41,97.045c-6.293-6.295-14.662-9.761-23.565-9.761c-8.901,0-17.27,3.467-23.564,9.76l-2.41,2.41 c-12.994,12.994-12.994,34.135,0,47.129l39.705,39.705h0.001c6.496,6.495,15.029,9.744,23.563,9.744s17.07-3.249,23.567-9.747 l2.406-2.408c6.295-6.293,9.761-14.662,9.761-23.564C420.875,151.411,417.409,143.042,411.115,136.749z M395.565,168.332 l-2.406,2.408c-4.421,4.421-11.613,4.421-16.034,0l-39.705-39.705c-4.421-4.42-4.421-11.612,0-16.032l2.41-2.411 c2.141-2.141,4.988-3.32,8.016-3.32c3.028,0,5.876,1.179,8.017,3.321l39.707,39.705c2.141,2.141,3.32,4.988,3.32,8.017 C398.887,163.342,397.709,166.188,395.565,168.332z"/>
    </g>
</svg>
